<svg xmlns="http://www.w3.org/2000/svg" width="19" height="19" viewBox="0 0 19 19">
    <path fill="#000" fill-rule="nonzero" d="M2.675 0h12.75A2.681 2.681 0 0 1 18.1 2.675v12.75a2.681 2.681 0 0 1-2.675 2.675H2.675A2.681 2.681 0 0 1 0 15.425V2.675A2.681 2.681 0 0 1 2.675 0zm0 1.1C1.81 1.1 1.1 1.81 1.1 2.675v12.75C1.1 16.29 1.81 17 2.675 17h12.75C16.29 17 17 16.29 17 15.425V2.675c0-.865-.71-1.575-1.575-1.575H2.675zM12.8 5.688a.388.388 0 0 0 0-.776H5.3a.388.388 0 0 0 0 .776h7.5zm0 1.1H5.3a1.487 1.487 0 1 1 0-2.976h7.5a1.487 1.487 0 1 1 0 2.975zm-3.75 6.4a.388.388 0 0 0 0-.776H5.3a.388.388 0 0 0 0 .775h3.75zm0 1.1H5.3a1.487 1.487 0 1 1 0-2.976h3.75a1.487 1.487 0 1 1 0 2.976zm3.75-4.85a.388.388 0 0 0 0-.776H5.3a.388.388 0 0 0 0 .775h7.5zm0 1.1H5.3a1.487 1.487 0 1 1 0-2.976h7.5a1.487 1.487 0 1 1 0 2.975z" opacity=".7"/>
</svg>
