<svg xmlns="http://www.w3.org/2000/svg" width="40" height="30" viewBox="0 0 40 30">
    <g fill="none" fill-rule="evenodd">
        <rect width="20.859" height="5.296" x="18.159" y="12.106" fill="#45C19C" opacity=".6" rx="2.648"/>
        <rect width="24.176" height="5.296" x="15.132" y="23.455" fill="#45C19C" rx="2.648"/>
        <rect width="24.176" height="5.296" x="15.132" y=".757" fill="#45C19C" opacity=".2" rx="2.648"/>
        <path fill="#4A4A4A" d="M21.189 11.61c3.038 1.54 4.952 4.536 4.952 8.24 0 5.243-3.912 9.28-9.405 9.28H.756V0h12.485c5.118 0 9.155 3.204 9.155 7.907a6.355 6.355 0 0 1-1.207 3.703zm-8.031-4.869H8.205v3.787h6.118c.54-.457.79-1.123.79-1.747 0-1.166-.749-2.04-1.955-2.04zm2.538 15.647c2.039 0 2.996-1.207 2.996-2.871 0-1.706-.957-2.871-2.954-2.871H8.205v5.742h7.491z"/>
    </g>
</svg>
