<svg xmlns="http://www.w3.org/2000/svg" width="43" height="7" viewBox="0 0 43 7">
    <path fill="#C8C8C8" fill-rule="nonzero" d="M8.576 5.956a1 1 0 0 0 1.453.01l3.342-3.489 3.05 3.459a1 1 0 0 0 1.452.05l3.59-3.544 3.206 3.507a1 1 0 0 0 1.437.04l3.631-3.555 3.255 3.52a1 1 0 0 0 1.459.009l3.335-3.512 3.345 3.513a1 1 0 0 0 1.449-1.38L38.51.31a1 1 0 0 0-1.45.001l-3.324 3.501L30.507.321a1 1 0 0 0-1.434-.036l-3.626 3.55-3.21-3.51a1 1 0 0 0-1.44-.037L17.22 3.82 14.15.34a1 1 0 0 0-1.472-.03l-3.362 3.51-3.263-3.5a1 1 0 0 0-1.43-.034C1.445 3.389.307 4.515.172 4.714a1 1 0 1 0 1.656 1.12c.006-.008 1.409-1.395 3.461-3.403l3.287 3.525z"/>
</svg>
