<svg xmlns="http://www.w3.org/2000/svg" width="19" height="13" viewBox="0 0 19 13">
    <path fill="#4A4A4A" fill-rule="evenodd" d="M9.016 12.068L8.051 9.36H2.672l-.965 2.707H0L4.448 0h1.81l4.465 12.068H9.016zM3.206 7.86H7.5L5.362 1.88 3.207 7.861zm11.897-4.637c1.931 0 3.362 1.207 3.362 3.275v5.569h-1.483v-.897c-.568.759-1.465 1.121-2.568 1.121-1.57 0-3.017-.914-3.017-2.758 0-1.845 1.448-2.759 3.017-2.759 1.103 0 2 .362 2.568 1V6.551c0-1.38-.861-1.896-1.879-1.896-1 0-1.862.517-1.862 1.551H11.76c0-1.775 1.43-2.982 3.344-2.982zm-.258 7.792c1.258 0 2.137-.62 2.137-1.482 0-.931-.879-1.5-2.137-1.5-1.345 0-1.948.638-1.948 1.5s.603 1.482 1.948 1.482z"/>
</svg>
