<svg xmlns="http://www.w3.org/2000/svg" width="19" height="20" viewBox="0 0 19 20">
    <path fill="none" fill-rule="nonzero" stroke="#000" stroke-width="1.1" d="M9.502 12.797a3.062 3.062 0 0 1-3.059-3.059A3.062 3.062 0 0 1 9.502 6.68a3.062 3.062 0 0 1 3.058 3.058 3.062 3.062 0 0 1-3.058 3.059zm6.493-2.21c.035-.28.06-.56.06-.849 0-.288-.025-.576-.06-.873l1.843-1.425a.44.44 0 0 0 .105-.559l-1.747-3.024c-.105-.192-.341-.27-.533-.192l-2.176.874c-.455-.34-.927-.638-1.477-.856l-.323-2.316A.442.442 0 0 0 11.25 1H7.754a.442.442 0 0 0-.437.367l-.323 2.316c-.55.218-1.022.515-1.477.856l-2.176-.874a.43.43 0 0 0-.533.192L1.061 6.881a.43.43 0 0 0 .104.56L3.01 8.864a7.472 7.472 0 0 0-.06.873c0 .289.025.568.06.848l-1.844 1.45a.43.43 0 0 0-.104.56l1.747 3.023c.105.193.341.263.533.193l2.176-.883c.455.35.926.647 1.477.865l.323 2.316c.035.21.219.367.437.367h3.496a.442.442 0 0 0 .437-.367l.323-2.316a6.363 6.363 0 0 0 1.477-.865l2.176.883a.44.44 0 0 0 .533-.193l1.747-3.023a.44.44 0 0 0-.105-.56l-1.843-1.45z" opacity=".3"/>
</svg>
