<svg xmlns="http://www.w3.org/2000/svg" width="21" height="19" viewBox="0 0 21 19">
    <g fill="none" fill-rule="evenodd" opacity=".3">
        <path fill="#000" fill-rule="nonzero" d="M9.42 0c-.26 0-.522.06-.773.15l-7.4 3.05C.222 3.62-.27 4.79.151 5.8l4.987 11.95A2.01 2.01 0 0 0 6.958 19c.26 0 .532-.03.794-.15l7.41-3.05a2.021 2.021 0 0 0 1.236-1.8c.01-.25-.04-.54-.13-.8L11.24 1.25C10.95.48 10.205.01 9.42 0m3.5 0l3.468 8.35V2c0-1.1-.905-2-2.01-2m4.03 1.54v9.03l2.444-5.86a1.987 1.987 0 0 0-1.096-2.6m-9.523-.42l5.041 11.821a1 1 0 0 1-.523 1.31l-7.31 3.154a1 1 0 0 1-1.318-.531L1.077 5.417a1 1 0 0 1 .548-1.314L8.94 1.154a1 1 0 0 1 1.294.536z"/>
        <path stroke="#000" d="M10.341 14.424l-1.523.608a1.089 1.089 0 0 1-1.413-.603 1.08 1.08 0 0 1 .6-1.408l1.524-.609a1.089 1.089 0 0 1 1.413.604 1.08 1.08 0 0 1-.6 1.408zM10.772 9.814L6.818 11.4a1.087 1.087 0 0 1-1.413-.602 1.082 1.082 0 0 1 .6-1.41L9.96 7.802a1.087 1.087 0 0 1 1.413.602 1.082 1.082 0 0 1-.6 1.41z"/>
    </g>
</svg>
